<svg xmlns="http://www.w3.org/2000/svg" width="1440" height="900"><path d="M760,441L640,386L751,505Z" fill="#74dee0" stroke="#74dee0" stroke-width="1.51"/><path d="M640,386L602,519L751,505Z" fill="#6ed6d9" stroke="#6ed6d9" stroke-width="1.51"/><path d="M602,519L716,581L751,505Z" fill="#69ced1" stroke="#69ced1" stroke-width="1.51"/><path d="M640,386L499,531L602,519Z" fill="#66ccd0" stroke="#66ccd0" stroke-width="1.51"/><path d="M602,519L603,673L716,581Z" fill="#5ebfc4" stroke="#5ebfc4" stroke-width="1.51"/><path d="M760,441L743,274L640,386Z" fill="#69d2d5" stroke="#69d2d5" stroke-width="1.51"/><path d="M640,386L424,406L499,531Z" fill="#62cacd" stroke="#62cacd" stroke-width="1.51"/><path d="M760,441L825,297L743,274Z" fill="#62c8cb" stroke="#62c8cb" stroke-width="1.51"/><path d="M903,537L865,393L760,441Z" fill="#6bd1d4" stroke="#6bd1d4" stroke-width="1.51"/><path d="M903,537L760,441L751,505Z" fill="#6aced2" stroke="#6aced2" stroke-width="1.51"/><path d="M743,274L609,270L640,386Z" fill="#5dc4c8" stroke="#5dc4c8" stroke-width="1.51"/><path d="M865,393L825,297L760,441Z" fill="#64cacd" stroke="#64cacd" stroke-width="1.51"/><path d="M475,597L603,673L602,519Z" fill="#57b6bb" stroke="#57b6bb" stroke-width="1.51"/><path d="M716,581L796,661L751,505Z" fill="#64c5c9" stroke="#64c5c9" stroke-width="1.51"/><path d="M688,725L796,661L716,581Z" fill="#5dbbc0" stroke="#5dbbc0" stroke-width="1.51"/><path d="M796,661L903,537L751,505Z" fill="#61c0c4" stroke="#61c0c4" stroke-width="1.51"/><path d="M499,531L475,597L602,519Z" fill="#59bbbf" stroke="#59bbbf" stroke-width="1.51"/><path d="M609,270L424,406L640,386Z" fill="#59c0c4" stroke="#59c0c4" stroke-width="1.51"/><path d="M499,531L355,454L475,597Z" fill="#53b6bb" stroke="#53b6bb" stroke-width="1.51"/><path d="M603,673L688,725L716,581Z" fill="#5ab7bb" stroke="#5ab7bb" stroke-width="1.51"/><path d="M587,775L688,725L603,673Z" fill="#4fa7ad" stroke="#4fa7ad" stroke-width="1.51"/><path d="M865,393L945,365L825,297Z" fill="#5cbec2" stroke="#5cbec2" stroke-width="1.51"/><path d="M903,537L945,365L865,393Z" fill="#65c8cb" stroke="#65c8cb" stroke-width="1.51"/><path d="M609,270L422,296L424,406Z" fill="#4fb4b9" stroke="#4fb4b9" stroke-width="1.51"/><path d="M903,537L983,558L945,365Z" fill="#60c0c4" stroke="#60c0c4" stroke-width="1.51"/><path d="M796,661L937,630L903,537Z" fill="#58b2b7" stroke="#58b2b7" stroke-width="1.51"/><path d="M814,773L937,630L796,661Z" fill="#52a8ae" stroke="#52a8ae" stroke-width="1.51"/><path d="M937,630L983,558L903,537Z" fill="#57b1b6" stroke="#57b1b6" stroke-width="1.51"/><path d="M424,406L355,454L499,531Z" fill="#59bfc4" stroke="#59bfc4" stroke-width="1.51"/><path d="M275,335L355,454L424,406Z" fill="#4cb2b7" stroke="#4cb2b7" stroke-width="1.51"/><path d="M496,809L587,775L603,673Z" fill="#469ca2" stroke="#469ca2" stroke-width="1.51"/><path d="M688,725L814,773L796,661Z" fill="#54acb2" stroke="#54acb2" stroke-width="1.51"/><path d="M496,809L603,673L475,597Z" fill="#49a3a8" stroke="#49a3a8" stroke-width="1.51"/><path d="M687,877L814,773L688,725Z" fill="#51a9ae" stroke="#51a9ae" stroke-width="1.51"/><path d="M825,297L867,180L743,274Z" fill="#53b7bb" stroke="#53b7bb" stroke-width="1.51"/><path d="M743,274L738,102L609,270Z" fill="#53b9be" stroke="#53b9be" stroke-width="1.51"/><path d="M609,270L538,119L422,296Z" fill="#44aaaf" stroke="#44aaaf" stroke-width="1.51"/><path d="M945,365L867,180L825,297Z" fill="#52b3b8" stroke="#52b3b8" stroke-width="1.51"/><path d="M867,180L738,102L743,274Z" fill="#4cb0b5" stroke="#4cb0b5" stroke-width="1.51"/><path d="M738,102L538,119L609,270Z" fill="#45abb0" stroke="#45abb0" stroke-width="1.51"/><path d="M587,775L687,877L688,725Z" fill="#4ba3a8" stroke="#4ba3a8" stroke-width="1.51"/><path d="M325,679L496,809L475,597Z" fill="#4099a0" stroke="#4099a0" stroke-width="1.51"/><path d="M355,454L325,679L475,597Z" fill="#49a8ad" stroke="#49a8ad" stroke-width="1.51"/><path d="M583,954L687,877L587,775Z" fill="#47a6a6" stroke="#47a6a6" stroke-width="1.51"/><path d="M945,365L1003,198L867,180Z" fill="#4aa8ad" stroke="#4aa8ad" stroke-width="1.51"/><path d="M925,46L772,-4L738,102Z" fill="#409fa5" stroke="#409fa5" stroke-width="1.51"/><path d="M1058,238L1003,198L945,365Z" fill="#48a4aa" stroke="#48a4aa" stroke-width="1.51"/><path d="M355,454L213,549L325,679Z" fill="#43a2a8" stroke="#43a2a8" stroke-width="1.51"/><path d="M422,296L275,335L424,406Z" fill="#47adb2" stroke="#47adb2" stroke-width="1.51"/><path d="M278,200L275,335L422,296Z" fill="#389da3" stroke="#389da3" stroke-width="1.51"/><path d="M983,558L1096,402L945,365Z" fill="#5fbdc2" stroke="#5fbdc2" stroke-width="1.51"/><path d="M1151,481L1096,402L983,558Z" fill="#58b1b7" stroke="#58b1b7" stroke-width="1.51"/><path d="M1003,198L1006,180L867,180Z" fill="#3f9ca3" stroke="#3f9ca3" stroke-width="1.51"/><path d="M1058,238L1006,180L1003,198Z" fill="#3d999f" stroke="#3d999f" stroke-width="1.51"/><path d="M538,119L465,80L422,296Z" fill="#369ca2" stroke="#369ca2" stroke-width="1.51"/><path d="M560,35L465,80L538,119Z" fill="#34979e" stroke="#34979e" stroke-width="1.51"/><path d="M1096,402L1058,238L945,365Z" fill="#4faab0" stroke="#4faab0" stroke-width="1.51"/><path d="M772,-4L560,35L738,102Z" fill="#44a6ab" stroke="#44a6ab" stroke-width="1.51"/><path d="M738,102L560,35L538,119Z" fill="#3da1a7" stroke="#3da1a7" stroke-width="1.51"/><path d="M814,773L1001,829L937,630Z" fill="#47989f" stroke="#47989f" stroke-width="1.51"/><path d="M937,630L1062,725L983,558Z" fill="#4ca1a7" stroke="#4ca1a7" stroke-width="1.51"/><path d="M687,877L895,860L814,773Z" fill="#4ba5a7" stroke="#4ba5a7" stroke-width="1.51"/><path d="M325,679L315,741L496,809Z" fill="#368c93" stroke="#368c93" stroke-width="1.51"/><path d="M210,600L315,741L325,679Z" fill="#358e95" stroke="#358e95" stroke-width="1.51"/><path d="M1001,829L1062,725L937,630Z" fill="#429198" stroke="#429198" stroke-width="1.51"/><path d="M206,347L213,549L355,454Z" fill="#4bb1b6" stroke="#4bb1b6" stroke-width="1.51"/><path d="M1232,337L1113,167L1058,238Z" fill="#3c9299" stroke="#3c9299" stroke-width="1.51"/><path d="M1125,655L1151,481L983,558Z" fill="#4ea2a9" stroke="#4ea2a9" stroke-width="1.51"/><path d="M925,46L738,102L867,180Z" fill="#3f9fa5" stroke="#3f9fa5" stroke-width="1.51"/><path d="M286,173L278,200L422,296Z" fill="#31969c" stroke="#31969c" stroke-width="1.51"/><path d="M275,335L206,347L355,454Z" fill="#43a8ad" stroke="#43a8ad" stroke-width="1.51"/><path d="M1006,180L925,46L867,180Z" fill="#3a989e" stroke="#3a989e" stroke-width="1.51"/><path d="M1113,167L925,46L1006,180Z" fill="#338e95" stroke="#338e95" stroke-width="1.51"/><path d="M173,313L206,347L275,335Z" fill="#379ca3" stroke="#379ca3" stroke-width="1.51"/><path d="M278,200L173,313L275,335Z" fill="#31979d" stroke="#31979d" stroke-width="1.51"/><path d="M465,80L286,173L422,296Z" fill="#31969c" stroke="#31969c" stroke-width="1.51"/><path d="M1062,725L1125,655L983,558Z" fill="#48989f" stroke="#48989f" stroke-width="1.51"/><path d="M213,549L210,600L325,679Z" fill="#39959c" stroke="#39959c" stroke-width="1.51"/><path d="M129,620L210,600L213,549Z" fill="#38959c" stroke="#38959c" stroke-width="1.51"/><path d="M895,860L1001,829L814,773Z" fill="#44989c" stroke="#44989c" stroke-width="1.51"/><path d="M1307,656L1286,637L1278,817Z" fill="#368388" stroke="#368388" stroke-width="1.51"/><path d="M496,809L583,954L587,775Z" fill="#419da0" stroke="#419da0" stroke-width="1.51"/><path d="M821,990L963,926L895,860Z" fill="#42a19f" stroke="#42a19f" stroke-width="1.51"/><path d="M895,860L963,926L1001,829Z" fill="#3f9698" stroke="#3f9698" stroke-width="1.51"/><path d="M460,950L583,954L496,809Z" fill="#3c9e9e" stroke="#3c9e9e" stroke-width="1.51"/><path d="M412,12L465,80L560,35Z" fill="#2f9198" stroke="#2f9198" stroke-width="1.51"/><path d="M412,12L371,43L465,80Z" fill="#298c92" stroke="#298c92" stroke-width="1.51"/><path d="M465,80L371,43L286,173Z" fill="#258b91" stroke="#258b91" stroke-width="1.51"/><path d="M493,-93L412,12L560,35Z" fill="#2f8f95" stroke="#2f8f95" stroke-width="1.51"/><path d="M543,-122L493,-93L560,35Z" fill="#329096" stroke="#329096" stroke-width="1.51"/><path d="M925,46L822,-41L772,-4Z" fill="#3c999f" stroke="#3c999f" stroke-width="1.51"/><path d="M1058,238L1113,167L1006,180Z" fill="#3a939a" stroke="#3a939a" stroke-width="1.51"/><path d="M925,46L849,-86L822,-41Z" fill="#3a959a" stroke="#3a959a" stroke-width="1.51"/><path d="M1232,337L1058,238L1096,402Z" fill="#479fa5" stroke="#479fa5" stroke-width="1.51"/><path d="M206,347L118,384L213,549Z" fill="#44a9ad" stroke="#44a9ad" stroke-width="1.51"/><path d="M70,176L173,313L278,200Z" fill="#278b92" stroke="#278b92" stroke-width="1.51"/><path d="M180,87L278,200L286,173Z" fill="#1b848b" stroke="#1b848b" stroke-width="1.51"/><path d="M317,900L496,809L315,741Z" fill="#328a90" stroke="#328a90" stroke-width="1.51"/><path d="M317,900L460,950L496,809Z" fill="#359495" stroke="#359495" stroke-width="1.51"/><path d="M460,950L570,986L583,954Z" fill="#3da4a1" stroke="#3da4a1" stroke-width="1.51"/><path d="M663,1085L821,990L687,877Z" fill="#4cb8b1" stroke="#4cb8b1" stroke-width="1.51"/><path d="M821,990L895,860L687,877Z" fill="#49a9a8" stroke="#49a9a8" stroke-width="1.51"/><path d="M1286,637L1125,655L1278,817Z" fill="#378088" stroke="#378088" stroke-width="1.51"/><path d="M663,1085L687,877L583,954Z" fill="#46b0ab" stroke="#46b0ab" stroke-width="1.51"/><path d="M173,313L118,384L206,347Z" fill="#399ca2" stroke="#399ca2" stroke-width="1.51"/><path d="M22,305L118,384L173,313Z" fill="#36989d" stroke="#36989d" stroke-width="1.51"/><path d="M151,803L317,900L315,741Z" fill="#267f85" stroke="#267f85" stroke-width="1.51"/><path d="M151,803L315,741L210,600Z" fill="#2b838a" stroke="#2b838a" stroke-width="1.51"/><path d="M1273,493L1232,337L1151,481Z" fill="#50a7ac" stroke="#50a7ac" stroke-width="1.51"/><path d="M1151,481L1232,337L1096,402Z" fill="#4fa7ad" stroke="#4fa7ad" stroke-width="1.51"/><path d="M41,519L129,620L213,549Z" fill="#3a979d" stroke="#3a979d" stroke-width="1.51"/><path d="M1026,-159L849,-86L925,46Z" fill="#348b90" stroke="#348b90" stroke-width="1.51"/><path d="M822,-41L692,-189L772,-4Z" fill="#409da1" stroke="#409da1" stroke-width="1.51"/><path d="M185,-4L180,87L371,43Z" fill="#137b82" stroke="#137b82" stroke-width="1.51"/><path d="M543,-122L560,35L772,-4Z" fill="#3c9ba0" stroke="#3c9ba0" stroke-width="1.51"/><path d="M1286,637L1273,493L1151,481Z" fill="#489ca1" stroke="#489ca1" stroke-width="1.51"/><path d="M1286,637L1151,481L1125,655Z" fill="#44939b" stroke="#44939b" stroke-width="1.51"/><path d="M692,-189L543,-122L772,-4Z" fill="#3e9b9f" stroke="#3e9b9f" stroke-width="1.51"/><path d="M570,986L663,1085L583,954Z" fill="#42afa8" stroke="#42afa8" stroke-width="1.51"/><path d="M460,950L403,1001L570,986Z" fill="#36a09c" stroke="#36a09c" stroke-width="1.51"/><path d="M317,900L403,1001L460,950Z" fill="#2f9593" stroke="#2f9593" stroke-width="1.51"/><path d="M963,926L1157,961L1001,829Z" fill="#388f90" stroke="#388f90" stroke-width="1.51"/><path d="M821,990L991,999L963,926Z" fill="#3fa09d" stroke="#3fa09d" stroke-width="1.51"/><path d="M1046,1084L991,999L821,990Z" fill="#3ba29b" stroke="#3ba29b" stroke-width="1.51"/><path d="M403,1001L663,1085L570,986Z" fill="#3baaa3" stroke="#3baaa3" stroke-width="1.51"/><path d="M371,43L180,87L286,173Z" fill="#198289" stroke="#198289" stroke-width="1.51"/><path d="M185,-4L371,43L262,-140Z" fill="#157980" stroke="#157980" stroke-width="1.51"/><path d="M371,43L412,12L312,-161Z" fill="#218288" stroke="#218288" stroke-width="1.51"/><path d="M317,900L305,1037L403,1001Z" fill="#28938f" stroke="#28938f" stroke-width="1.51"/><path d="M129,620L151,803L210,600Z" fill="#2f868e" stroke="#2f868e" stroke-width="1.51"/><path d="M1125,655L1062,725L1208,857Z" fill="#388088" stroke="#388088" stroke-width="1.51"/><path d="M73,792L111,846L151,803Z" fill="#22787d" stroke="#22787d" stroke-width="1.51"/><path d="M118,384L41,519L213,549Z" fill="#43a4a9" stroke="#43a4a9" stroke-width="1.51"/><path d="M-32,478L41,519L118,384Z" fill="#44a4aa" stroke="#44a4aa" stroke-width="1.51"/><path d="M1113,167L1165,28L925,46Z" fill="#2e858d" stroke="#2e858d" stroke-width="1.51"/><path d="M1232,337L1262,198L1113,167Z" fill="#358991" stroke="#358991" stroke-width="1.51"/><path d="M1282,187L1262,198L1332,200Z" fill="#2d878c" stroke="#2d878c" stroke-width="1.51"/><path d="M1320,408L1232,337L1273,493Z" fill="#4ca6aa" stroke="#4ca6aa" stroke-width="1.51"/><path d="M1319,572L1320,408L1273,493Z" fill="#4ca7a9" stroke="#4ca7a9" stroke-width="1.51"/><path d="M1286,637L1319,572L1273,493Z" fill="#44999d" stroke="#44999d" stroke-width="1.51"/><path d="M849,-86L692,-189L822,-41Z" fill="#3e989c" stroke="#3e989c" stroke-width="1.51"/><path d="M849,-86L1026,-159L692,-189Z" fill="#388f94" stroke="#388f94" stroke-width="1.51"/><path d="M1262,198L1165,28L1113,167Z" fill="#287d85" stroke="#287d85" stroke-width="1.51"/><path d="M1286,637L1307,656L1319,572Z" fill="#3f9195" stroke="#3f9195" stroke-width="1.51"/><path d="M1208,857L1062,725L1001,829Z" fill="#388289" stroke="#388289" stroke-width="1.51"/><path d="M1157,961L1208,857L1001,829Z" fill="#338587" stroke="#338587" stroke-width="1.51"/><path d="M1262,198L1282,187L1165,28Z" fill="#267c84" stroke="#267c84" stroke-width="1.51"/><path d="M1332,200L1262,198L1232,337Z" fill="#358e93" stroke="#358e93" stroke-width="1.51"/><path d="M180,87L70,176L278,200Z" fill="#188088" stroke="#188088" stroke-width="1.51"/><path d="M70,176L22,305L173,313Z" fill="#2b8d93" stroke="#2b8d93" stroke-width="1.51"/><path d="M312,-161L493,-93L543,-122Z" fill="#28858a" stroke="#28858a" stroke-width="1.51"/><path d="M312,-161L412,12L493,-93Z" fill="#248389" stroke="#248389" stroke-width="1.51"/><path d="M180,87L42,16L70,176Z" fill="#10777f" stroke="#10777f" stroke-width="1.51"/><path d="M139,883L246,992L317,900Z" fill="#1e8485" stroke="#1e8485" stroke-width="1.51"/><path d="M403,1001L305,1037L663,1085Z" fill="#32a39b" stroke="#32a39b" stroke-width="1.51"/><path d="M151,803L139,883L317,900Z" fill="#217f82" stroke="#217f82" stroke-width="1.51"/><path d="M111,846L139,883L151,803Z" fill="#217a7f" stroke="#217a7f" stroke-width="1.51"/><path d="M73,792L151,803L129,620Z" fill="#277b82" stroke="#277b82" stroke-width="1.51"/><path d="M246,992L305,1037L317,900Z" fill="#228d8b" stroke="#228d8b" stroke-width="1.51"/><path d="M-32,656L73,792L129,620Z" fill="#2b8087" stroke="#2b8087" stroke-width="1.51"/><path d="M991,999L1157,961L963,926Z" fill="#379491" stroke="#379491" stroke-width="1.51"/><path d="M1208,857L1278,817L1125,655Z" fill="#30747d" stroke="#30747d" stroke-width="1.51"/><path d="M1046,1084L1157,961L991,999Z" fill="#33958f" stroke="#33958f" stroke-width="1.51"/><path d="M1165,28L1026,-159L925,46Z" fill="#2e8289" stroke="#2e8289" stroke-width="1.51"/><path d="M1316,51L1184,-12L1165,28Z" fill="#23747b" stroke="#23747b" stroke-width="1.51"/><path d="M1313,892L1278,817L1208,857Z" fill="#2d7d7f" stroke="#2d7d7f" stroke-width="1.51"/><path d="M1282,187L1316,51L1165,28Z" fill="#237a80" stroke="#237a80" stroke-width="1.51"/><path d="M1320,408L1332,200L1232,337Z" fill="#3e989c" stroke="#3e989c" stroke-width="1.51"/><path d="M1366,81L1332,200L1516,162Z" fill="#238688" stroke="#238688" stroke-width="1.51"/><path d="M41,519L-32,656L129,620Z" fill="#358e94" stroke="#358e94" stroke-width="1.51"/><path d="M22,305L-32,478L118,384Z" fill="#3c9da2" stroke="#3c9da2" stroke-width="1.51"/><path d="M1184,-12L1026,-159L1165,28Z" fill="#27787f" stroke="#27787f" stroke-width="1.51"/><path d="M692,-189L312,-161L543,-122Z" fill="#2e898e" stroke="#2e898e" stroke-width="1.51"/><path d="M663,1085L1046,1084L821,990Z" fill="#42afa7" stroke="#42afa7" stroke-width="1.51"/><path d="M42,16L-7,172L70,176Z" fill="#10777e" stroke="#10777e" stroke-width="1.51"/><path d="M312,-161L262,-140L371,43Z" fill="#1a7a81" stroke="#1a7a81" stroke-width="1.51"/><path d="M-32,478L-32,656L41,519Z" fill="#399499" stroke="#399499" stroke-width="1.51"/><path d="M73,792L0,847L111,846Z" fill="#20777b" stroke="#20777b" stroke-width="1.51"/><path d="M22,305L-112,362L-32,478Z" fill="#3a999e" stroke="#3a999e" stroke-width="1.51"/><path d="M70,176L-7,172L22,305Z" fill="#22848a" stroke="#22848a" stroke-width="1.51"/><path d="M42,16L180,87L185,-4Z" fill="#0f757c" stroke="#0f757c" stroke-width="1.51"/><path d="M1046,1084L1222,985L1157,961Z" fill="#2e8c88" stroke="#2e8c88" stroke-width="1.51"/><path d="M1157,961L1222,985L1208,857Z" fill="#2c8081" stroke="#2c8081" stroke-width="1.51"/><path d="M1366,81L1316,51L1282,187Z" fill="#217e82" stroke="#217e82" stroke-width="1.51"/><path d="M1184,-12L1159,-154L1026,-159Z" fill="#26747b" stroke="#26747b" stroke-width="1.51"/><path d="M1400,831L1455,624L1307,656Z" fill="#348889" stroke="#348889" stroke-width="1.51"/><path d="M1307,656L1455,624L1319,572Z" fill="#3e9596" stroke="#3e9596" stroke-width="1.51"/><path d="M1543,294L1332,200L1320,408Z" fill="#3a9c9c" stroke="#3a9c9c" stroke-width="1.51"/><path d="M1222,985L1313,892L1208,857Z" fill="#2c8080" stroke="#2c8080" stroke-width="1.51"/><path d="M32,-92L42,16L185,-4Z" fill="#0d7076" stroke="#0d7076" stroke-width="1.51"/><path d="M-87,815L0,847L73,792Z" fill="#207379" stroke="#207379" stroke-width="1.51"/><path d="M111,846L0,847L139,883Z" fill="#20797d" stroke="#20797d" stroke-width="1.51"/><path d="M139,883L108,1016L246,992Z" fill="#1b8483" stroke="#1b8483" stroke-width="1.51"/><path d="M246,992L108,1016L305,1037Z" fill="#188a86" stroke="#188a86" stroke-width="1.51"/><path d="M1177,-149L1159,-154L1184,-12Z" fill="#226f76" stroke="#226f76" stroke-width="1.51"/><path d="M1026,-159L1460,-171L692,-189Z" fill="#29777d" stroke="#29777d" stroke-width="1.51"/><path d="M1347,-109L1177,-149L1184,-12Z" fill="#1f6e74" stroke="#1f6e74" stroke-width="1.51"/><path d="M1332,200L1366,81L1282,187Z" fill="#278387" stroke="#278387" stroke-width="1.51"/><path d="M1476,495L1320,408L1319,572Z" fill="#4baaaa" stroke="#4baaaa" stroke-width="1.51"/><path d="M1347,-109L1184,-12L1316,51Z" fill="#207479" stroke="#207479" stroke-width="1.51"/><path d="M1400,831L1307,656L1278,817Z" fill="#2f7b80" stroke="#2f7b80" stroke-width="1.51"/><path d="M0,847L108,1016L139,883Z" fill="#1c7d7e" stroke="#1c7d7e" stroke-width="1.51"/><path d="M305,1037L-50,1089L663,1085Z" fill="#1e968e" stroke="#1e968e" stroke-width="1.51"/><path d="M-96,240L-112,362L22,305Z" fill="#2f8d92" stroke="#2f8d92" stroke-width="1.51"/><path d="M-32,478L-152,618L-32,656Z" fill="#358c91" stroke="#358c91" stroke-width="1.51"/><path d="M-32,656L-87,815L73,792Z" fill="#23737a" stroke="#23737a" stroke-width="1.51"/><path d="M-96,240L22,305L-7,172Z" fill="#25858b" stroke="#25858b" stroke-width="1.51"/><path d="M1455,624L1476,495L1319,572Z" fill="#43a09f" stroke="#43a09f" stroke-width="1.51"/><path d="M-127,185L-96,240L-7,172Z" fill="#1d7d83" stroke="#1d7d83" stroke-width="1.51"/><path d="M1486,846L1400,831L1405,1050Z" fill="#278882" stroke="#278882" stroke-width="1.51"/><path d="M1313,892L1400,831L1278,817Z" fill="#2c7f80" stroke="#2c7f80" stroke-width="1.51"/><path d="M1476,495L1503,424L1320,408Z" fill="#4eb3b0" stroke="#4eb3b0" stroke-width="1.51"/><path d="M1583,421L1503,424L1476,495Z" fill="#4db8b1" stroke="#4db8b1" stroke-width="1.51"/><path d="M-96,240L-134,299L-112,362Z" fill="#2d8a8f" stroke="#2d8a8f" stroke-width="1.51"/><path d="M-152,618L-87,815L-32,656Z" fill="#29797f" stroke="#29797f" stroke-width="1.51"/><path d="M-127,185L-134,299L-96,240Z" fill="#248187" stroke="#248187" stroke-width="1.51"/><path d="M0,847L-50,1089L108,1016Z" fill="#17807d" stroke="#17807d" stroke-width="1.51"/><path d="M-152,618L-32,478L-192,543Z" fill="#389094" stroke="#389094" stroke-width="1.51"/><path d="M-188,388L-32,478L-112,362Z" fill="#3d9a9e" stroke="#3d9a9e" stroke-width="1.51"/><path d="M-53,-24L-127,185L-7,172Z" fill="#0e7279" stroke="#0e7279" stroke-width="1.51"/><path d="M262,-140L32,-92L185,-4Z" fill="#0c7077" stroke="#0c7077" stroke-width="1.51"/><path d="M312,-161L32,-92L262,-140Z" fill="#0c6e75" stroke="#0c6e75" stroke-width="1.51"/><path d="M-53,-24L-7,172L42,16Z" fill="#0d7178" stroke="#0d7178" stroke-width="1.51"/><path d="M-127,185L-188,388L-134,299Z" fill="#2b888c" stroke="#2b888c" stroke-width="1.51"/><path d="M-134,299L-188,388L-112,362Z" fill="#349095" stroke="#349095" stroke-width="1.51"/><path d="M-232,793L-131,901L-87,815Z" fill="#1d6f72" stroke="#1d6f72" stroke-width="1.51"/><path d="M-188,388L-192,543L-32,478Z" fill="#409ca0" stroke="#409ca0" stroke-width="1.51"/><path d="M32,-92L-53,-24L42,16Z" fill="#0b6d73" stroke="#0b6d73" stroke-width="1.51"/><path d="M1366,81L1347,-109L1316,51Z" fill="#1f797c" stroke="#1f797c" stroke-width="1.51"/><path d="M1177,-149L1460,-171L1159,-154Z" fill="#1d6c70" stroke="#1d6c70" stroke-width="1.51"/><path d="M1501,39L1347,-109L1366,81Z" fill="#1c7c7c" stroke="#1c7c7c" stroke-width="1.51"/><path d="M1638,622L1476,495L1455,624Z" fill="#3fa29e" stroke="#3fa29e" stroke-width="1.51"/><path d="M1583,421L1543,294L1503,424Z" fill="#43afa9" stroke="#43afa9" stroke-width="1.51"/><path d="M1503,424L1543,294L1320,408Z" fill="#44aaa7" stroke="#44aaa7" stroke-width="1.51"/><path d="M1400,831L1529,711L1455,624Z" fill="#318888" stroke="#318888" stroke-width="1.51"/><path d="M1543,294L1516,162L1332,200Z" fill="#2c9391" stroke="#2c9391" stroke-width="1.51"/><path d="M1400,831L1486,846L1529,711Z" fill="#2b8281" stroke="#2b8281" stroke-width="1.51"/><path d="M1405,1050L1400,831L1313,892Z" fill="#288782" stroke="#288782" stroke-width="1.51"/><path d="M1405,1050L1313,892L1222,985Z" fill="#288782" stroke="#288782" stroke-width="1.51"/><path d="M1654,501L1583,421L1476,495Z" fill="#4ab7af" stroke="#4ab7af" stroke-width="1.51"/><path d="M1543,294L1576,287L1516,162Z" fill="#2f9c96" stroke="#2f9c96" stroke-width="1.51"/><path d="M1583,421L1576,287L1543,294Z" fill="#3ca9a2" stroke="#3ca9a2" stroke-width="1.51"/><path d="M-87,815L-131,901L0,847Z" fill="#1d7376" stroke="#1d7376" stroke-width="1.51"/><path d="M-232,793L-87,815L-152,618Z" fill="#236f76" stroke="#236f76" stroke-width="1.51"/><path d="M1621,146L1501,39L1516,162Z" fill="#198986" stroke="#198986" stroke-width="1.51"/><path d="M1516,162L1501,39L1366,81Z" fill="#1c8383" stroke="#1c8383" stroke-width="1.51"/><path d="M1046,1084L1405,1050L1222,985Z" fill="#278882" stroke="#278882" stroke-width="1.51"/><path d="M1571,854L1570,814L1486,846Z" fill="#278882" stroke="#278882" stroke-width="1.51"/><path d="M1486,846L1570,814L1529,711Z" fill="#298481" stroke="#298481" stroke-width="1.51"/><path d="M1529,711L1638,622L1455,624Z" fill="#379893" stroke="#379893" stroke-width="1.51"/><path d="M32,-92L-113,-81L-53,-24Z" fill="#09696e" stroke="#09696e" stroke-width="1.51"/><path d="M-53,-24L-202,-47L-127,185Z" fill="#0a6c72" stroke="#0a6c72" stroke-width="1.51"/><path d="M-127,185L-202,-47L-188,388Z" fill="#17767c" stroke="#17767c" stroke-width="1.51"/><path d="M-168,-100L-113,-81L32,-92Z" fill="#08666b" stroke="#08666b" stroke-width="1.51"/><path d="M-131,901L-50,1089L0,847Z" fill="#187a78" stroke="#187a78" stroke-width="1.51"/><path d="M108,1016L-50,1089L305,1037Z" fill="#138982" stroke="#138982" stroke-width="1.51"/><path d="M663,1085L-50,1089L1046,1084Z" fill="#3ab0a5" stroke="#3ab0a5" stroke-width="1.51"/><path d="M-192,543L-232,793L-152,618Z" fill="#2c7c82" stroke="#2c7c82" stroke-width="1.51"/><path d="M-131,901L-190,982L-50,1089Z" fill="#157b76" stroke="#157b76" stroke-width="1.51"/><path d="M-188,388L-232,793L-192,543Z" fill="#34888d" stroke="#34888d" stroke-width="1.51"/><path d="M1583,421L1746,396L1576,287Z" fill="#3fb2a8" stroke="#3fb2a8" stroke-width="1.51"/><path d="M1570,814L1638,622L1529,711Z" fill="#2f8f8a" stroke="#2f8f8a" stroke-width="1.51"/><path d="M1797,787L1765,595L1638,622Z" fill="#319d93" stroke="#319d93" stroke-width="1.51"/><path d="M1541,1074L1571,854L1486,846Z" fill="#228e84" stroke="#228e84" stroke-width="1.51"/><path d="M1638,622L1654,501L1476,495Z" fill="#42ada5" stroke="#42ada5" stroke-width="1.51"/><path d="M1576,287L1621,146L1516,162Z" fill="#269690" stroke="#269690" stroke-width="1.51"/><path d="M1772,303L1621,146L1576,287Z" fill="#2ba197" stroke="#2ba197" stroke-width="1.51"/><path d="M1501,39L1460,-171L1347,-109Z" fill="#197877" stroke="#197877" stroke-width="1.51"/><path d="M1614,-158L1460,-171L1501,39Z" fill="#157c77" stroke="#157c77" stroke-width="1.51"/><path d="M1347,-109L1460,-171L1177,-149Z" fill="#1c7072" stroke="#1c7072" stroke-width="1.51"/><path d="M1159,-154L1460,-171L1026,-159Z" fill="#1e6970" stroke="#1e6970" stroke-width="1.51"/><path d="M-232,793L-190,982L-131,901Z" fill="#197272" stroke="#197272" stroke-width="1.51"/><path d="M-113,-81L-202,-47L-53,-24Z" fill="#08676c" stroke="#08676c" stroke-width="1.51"/><path d="M-188,388L-202,-47L-232,793Z" fill="#379296" stroke="#379296" stroke-width="1.51"/><path d="M312,-161L-168,-100L32,-92Z" fill="#096a70" stroke="#096a70" stroke-width="1.51"/><path d="M-168,-100L-202,-47L-113,-81Z" fill="#066469" stroke="#066469" stroke-width="1.51"/><path d="M1405,1050L1541,1074L1486,846Z" fill="#219084" stroke="#219084" stroke-width="1.51"/><path d="M1769,491L1654,501L1765,595Z" fill="#41b4a8" stroke="#41b4a8" stroke-width="1.51"/><path d="M1046,1084L1541,1074L1405,1050Z" fill="#228f84" stroke="#228f84" stroke-width="1.51"/><path d="M1654,501L1746,396L1583,421Z" fill="#49beb2" stroke="#49beb2" stroke-width="1.51"/><path d="M1769,491L1746,396L1654,501Z" fill="#48bfb2" stroke="#48bfb2" stroke-width="1.51"/><path d="M1654,501L1638,622L1765,595Z" fill="#3caca1" stroke="#3caca1" stroke-width="1.51"/><path d="M1638,622L1570,814L1797,787Z" fill="#2a8f87" stroke="#2a8f87" stroke-width="1.51"/><path d="M1621,146L1648,-40L1501,39Z" fill="#158782" stroke="#158782" stroke-width="1.51"/><path d="M1745,85L1648,-40L1621,146Z" fill="#0f8c84" stroke="#0f8c84" stroke-width="1.51"/><path d="M1772,303L1576,287L1746,396Z" fill="#37afa3" stroke="#37afa3" stroke-width="1.51"/><path d="M1797,787L1570,814L1571,854Z" fill="#258c83" stroke="#258c83" stroke-width="1.51"/><path d="M1769,491L1772,303L1746,396Z" fill="#41b9ac" stroke="#41b9ac" stroke-width="1.51"/><path d="M1541,1074L1664,984L1571,854Z" fill="#1d9485" stroke="#1d9485" stroke-width="1.51"/><path d="M1648,-40L1614,-158L1501,39Z" fill="#13817b" stroke="#13817b" stroke-width="1.51"/><path d="M1706,-184L1614,-158L1648,-40Z" fill="#0b8077" stroke="#0b8077" stroke-width="1.51"/><path d="M1772,303L1745,85L1621,146Z" fill="#1c988f" stroke="#1c988f" stroke-width="1.51"/><path d="M1737,952L1797,787L1571,854Z" fill="#209284" stroke="#209284" stroke-width="1.51"/><path d="M1765,595L1797,787L1769,491Z" fill="#36a499" stroke="#36a499" stroke-width="1.51"/><path d="M1769,491L1797,787L1772,303Z" fill="#41b4a8" stroke="#41b4a8" stroke-width="1.51"/><path d="M1664,984L1737,952L1571,854Z" fill="#1d9585" stroke="#1d9585" stroke-width="1.51"/><path d="M1774,1050L1737,952L1664,984Z" fill="#149b87" stroke="#149b87" stroke-width="1.51"/><path d="M1745,85L1792,56L1648,-40Z" fill="#0d8b82" stroke="#0d8b82" stroke-width="1.51"/><path d="M1772,303L1792,56L1745,85Z" fill="#16948b" stroke="#16948b" stroke-width="1.51"/><path d="M1797,787L1792,56L1772,303Z" fill="#40b7aa" stroke="#40b7aa" stroke-width="1.51"/><path d="M1792,56L1706,-184L1648,-40Z" fill="#09867c" stroke="#09867c" stroke-width="1.51"/><path d="M1614,-158L1706,-184L1460,-171Z" fill="#0e7a73" stroke="#0e7a73" stroke-width="1.51"/><path d="M1460,-171L1706,-184L692,-189Z" fill="#1c6c6f" stroke="#1c6c6f" stroke-width="1.51"/><path d="M1541,1074L1774,1050L1664,984Z" fill="#119d87" stroke="#119d87" stroke-width="1.51"/><path d="M1737,952L1774,1050L1797,787Z" fill="#1b9685" stroke="#1b9685" stroke-width="1.51"/></svg>